<svg xmlns="http://www.w3.org/2000/svg" width="96" height="96" viewBox="0 0 96 96">
  <path d="M20 84V30q28-43 56 0v54Z" fill="#3b4c48" stroke="#172225" stroke-width="4" stroke-linejoin="round"/>
  <path d="M27 82V31q21-29 42 0v51Z" fill="#1e3030"/>
  <path d="m27 43 15-7h12l15 7 10 39H17Z" fill="#8a9a8b" stroke="#172225" stroke-width="4" stroke-linejoin="round"/>
  <path d="m35 21 13-6 13 6 1 19-14 12-14-12Z" fill="#c6cbb4" stroke="#172225" stroke-width="4" stroke-linejoin="round"/>
  <path d="M38 29h8v7h-8Zm12 0h8v7h-8Z" fill="#6bc0af"/>
  <path d="m43 42 5-5 5 5" fill="none" stroke="#172225" stroke-width="3" stroke-linejoin="round"/>
  <path d="m30 57 18-6 18 6-3 18-15 12-15-12Z" fill="#576e68" stroke="#172225" stroke-width="4" stroke-linejoin="round"/>
  <path d="m48 56 12 4-2 12-10 9Z" fill="#78988b"/>
  <path d="M48 61v15m-6-10h12" stroke="#dbc291" stroke-width="4" stroke-linecap="round"/>
  <path d="m23 20-5 9m55-9 5 9" stroke="#8fa88e" stroke-width="3" stroke-linecap="round"/>
</svg>
