<svg xmlns="http://www.w3.org/2000/svg" width="96" height="96" viewBox="0 0 96 96">
  <path d="M15 87q3-25 22-29h20q17 5 20 29Z" fill="#526b91" stroke="#172225" stroke-width="4" stroke-linejoin="round"/>
  <path d="m30 39 6 19 12 10 12-10 5-19Z" fill="#d6be93" stroke="#172225" stroke-width="4" stroke-linejoin="round"/>
  <path d="m23 38 25-29 12 28 12 9-53 2Z" fill="#7793b9" stroke="#172225" stroke-width="4" stroke-linejoin="round"/>
  <path d="m48 13-6 25 21 5-8-9Z" fill="#536886"/>
  <path d="M37 51h5m10 0h5" stroke="#172225" stroke-width="3" stroke-linecap="round"/>
  <path d="m34 59 14 6 12-6-6 20-9-5-5 7Z" fill="#dbe1cc" stroke="#172225" stroke-width="3" stroke-linejoin="round"/>
  <path d="M78 29v57" stroke="#172225" stroke-width="8" stroke-linecap="round"/>
  <path d="M78 29v57" stroke="#ad8654" stroke-width="4" stroke-linecap="round"/>
  <path d="m78 9 9 11-9 15-9-15Z" fill="#94c9d7" stroke="#172225" stroke-width="3" stroke-linejoin="round"/>
  <path d="M78 14v12m-8-20-3-3m20 3 3-3" stroke="#dcebd0" stroke-width="3" stroke-linecap="round"/>
  <path d="M26 77h8m20 5h8" stroke="#ccb27d" stroke-width="3" stroke-linecap="round"/>
</svg>
