<svg xmlns="http://www.w3.org/2000/svg" width="96" height="96" viewBox="0 0 96 96">
  <path d="M14 47h68v35H14Z" fill="#9b6e3c" stroke="#172225" stroke-width="4" stroke-linejoin="round"/>
  <path d="M11 40q2-23 18-23h38q16 0 18 23l-7 12H18Z" fill="#b99453" stroke="#172225" stroke-width="4"/>
  <path d="M22 25h52v12H22Z" fill="#785839"/>
  <path d="m17 44 62-2-4 27H21Z" fill="#172225"/>
  <path d="m21 43 5 11 7-11 6 11 7-11 7 11 7-11 7 11 8-11M23 69l5-9 6 9 7-9 6 9 7-9 7 9 7-9 5 9" fill="#f2e5c6"/>
  <path d="M44 62q8-9 16 3 7 9 13 2-2 16-16 12-14-3-13-17Z" fill="#d78077" stroke="#172225" stroke-width="3"/>
  <path d="M26 17v20m44-20v20M24 72v10m48-9v9" stroke="#dec48a" stroke-width="6"/>
  <circle cx="37" cy="31" r="3" fill="#e9986c"/><circle cx="58" cy="31" r="3" fill="#e9986c"/>
</svg>
